# xmcd CD database file
#
# Track frame offsets:
#	150
#	16185
#	30610
#	51215
#	66007
#	78900
#	97458
#	118555
#	152605
#	179973
#	192693
#
# Disc length: 2743 seconds
#
# Revision: 0
# Processed by: cddbd v1.5.1PL2 Copyright (c) Steve Scherf et al.
# Submitted via: Feurio! 1.68 - http://www.feurio.com
#
DISCID=970ab50b
DTITLE=Frijid Pink - FROSTED
DYEAR=1900
DGENRE=Bluesrock
TTITLE0=God Gave Me You
TTITLE1=Crying Shame
TTITLE2=I'm On My Way
TTITLE3=Drivin' Blues
TTITLE4=Tell Me Why
TTITLE5=End Of The Line
TTITLE6=House Of The Rising Sun
TTITLE7=I Want To Be Your Lover
TTITLE8=Boozin' Blues
TTITLE9=Heartbreak Hotel
TTITLE10=Music For The People
EXTD=
EXTT0=
EXTT1=
EXTT2=
EXTT3=
EXTT4=
EXTT5=
EXTT6=
EXTT7=
EXTT8=
EXTT9=
EXTT10=
PLAYORDER=
